<svg width="33" height="34" viewBox="0 0 33 34" fill="none" xmlns="http://www.w3.org/2000/svg">
<g filter="url(#filter0_f_46_3171)">
<path d="M17.0292 32.1239C14.6166 32.1239 12.6608 31.6761 12.6608 31.1239C12.6608 30.5716 14.6166 30.1239 17.0292 30.1239C19.4419 30.1239 21.3977 30.5716 21.3977 31.1239C21.3977 31.6761 19.4419 32.1239 17.0292 32.1239Z" fill="black" fill-opacity="0.226808"/>
</g>
<g opacity="0.75" filter="url(#filter1_f_46_3171)">
<path fill-rule="evenodd" clip-rule="evenodd" d="M8.50809 2C8.50809 2 6.44299 4.35892 7.81976 11.1461C7.81976 11.1461 2.63444 16.6357 2.25308 22.2249C2.01655 25.6915 3.91217 29.1931 9.20606 30.3615C10.491 30.6451 13.2437 31.1698 16.3007 31.1067C19.482 31.1703 22.8183 30.6329 24.0571 30.3594C29.3472 29.191 31.2414 25.6896 31.0051 22.2233C30.6239 16.6346 25.4424 11.1453 25.4424 11.1453C26.8181 4.35882 24.7546 2 24.7546 2C24.0168 2.72704 21.9031 4.21024 18.413 6.44948C17.9056 6.21367 17.2912 6.07566 16.629 6.07566C15.9692 6.07566 15.3566 6.2127 14.8501 6.44711C11.36 4.20916 9.24594 2.72683 8.50809 2Z" stroke="#390083" stroke-width="0.625" stroke-linecap="round" stroke-linejoin="round"/>
</g>
<path fill-rule="evenodd" clip-rule="evenodd" d="M26.806 29.4288C26.7991 29.6378 26.7874 29.8493 26.7705 30.0632C30.4289 28.5036 31.77 25.5207 31.5679 22.5625C31.4199 20.3956 30.5545 18.2442 29.5458 16.4163H28.8607C26.1016 16.5355 19.9765 17.4556 17.0452 22.5571L16.6428 22.3312C16.6428 22.3312 12.2399 15.6332 5.3141 16.4163L4.57207 16.4578C3.59492 17.9826 2.69015 20.3966 2.54194 22.564C2.33977 25.5214 3.681 28.5037 7.33938 30.0639C7.33917 30.0612 7.33896 30.0585 7.33875 30.0558C7.99532 30.3375 8.7623 30.5992 9.57236 30.7793C10.0415 30.8835 10.714 31.0045 11.5157 31.1329C11.5154 31.1326 11.5152 31.1323 11.5149 31.132C12.9267 31.3566 14.7628 31.5554 16.7236 31.515C18.8442 31.5573 21.0326 31.3357 22.6352 31.1007C22.6354 31.1004 22.6357 31.1001 22.6359 31.0998C23.4518 30.9791 24.1144 30.8703 24.5358 30.7763C25.3523 30.5942 26.1097 30.3371 26.7702 30.0523C26.795 29.7353 26.8089 29.4235 26.8133 29.1176L26.806 29.4288Z" fill="white"/>
<mask id="mask0_46_3171" style="mask-type:alpha" maskUnits="userSpaceOnUse" x="23" y="19" width="4" height="6">
<path d="M23.0804 19.9642H26.6412V24.1681H23.0804V19.9642Z" fill="white"/>
</mask>
<g mask="url(#mask0_46_3171)">
<path fill-rule="evenodd" clip-rule="evenodd" d="M24.8598 24.1681C23.8766 24.1676 23.08 23.2262 23.0804 22.0652C23.081 20.9044 23.8786 19.9637 24.862 19.9642C25.8452 19.9646 26.6418 20.9061 26.6413 22.0669C26.6407 23.2278 25.843 24.1686 24.8598 24.1681Z" fill="#33067F"/>
</g>
<g filter="url(#filter2_f_46_3171)">
<path fill-rule="evenodd" clip-rule="evenodd" d="M24.8601 23.5937C24.1242 23.5933 23.528 22.9092 23.5283 22.0655C23.5288 21.2219 24.1257 20.5382 24.8617 20.5386C25.5977 20.5389 26.1939 21.2231 26.1935 22.0667C26.1931 22.9104 25.596 23.594 24.8601 23.5937Z" stroke="#7D5BF7" stroke-width="0.625"/>
</g>
<path fill-rule="evenodd" clip-rule="evenodd" d="M24.2754 22.4317C24.6239 22.4318 24.9066 22.0901 24.9067 21.6683C24.907 21.2464 24.6245 20.9044 24.276 20.9041C23.9275 20.904 23.6448 21.2457 23.6445 21.6675C23.6444 22.0894 23.9269 22.4315 24.2754 22.4317Z" fill="white"/>
<path fill-rule="evenodd" clip-rule="evenodd" d="M25.5822 23.2386C25.7219 23.2386 25.8351 23.1274 25.8351 22.9903C25.8352 22.853 25.7221 22.7416 25.5824 22.7416C25.4427 22.7415 25.3295 22.8527 25.3293 22.9899C25.3293 23.1272 25.4424 23.2386 25.5822 23.2386Z" fill="white"/>
<mask id="mask1_46_3171" style="mask-type:alpha" maskUnits="userSpaceOnUse" x="7" y="19" width="4" height="6">
<path d="M7.33105 19.9642H10.8918V24.1681H7.33105V19.9642Z" fill="white"/>
</mask>
<g mask="url(#mask1_46_3171)">
<path fill-rule="evenodd" clip-rule="evenodd" d="M9.11041 24.1681C8.12718 24.1676 7.33058 23.2262 7.33105 22.0652C7.33165 20.9044 8.12922 19.9637 9.11257 19.9642C10.0958 19.9646 10.8924 20.9061 10.8919 22.0669C10.8913 23.2278 10.0936 24.1686 9.11041 24.1681Z" fill="#33067F"/>
</g>
<g filter="url(#filter3_f_46_3171)">
<path fill-rule="evenodd" clip-rule="evenodd" d="M9.11061 23.5937C8.37469 23.5933 7.77845 22.9092 7.77881 22.0655C7.77926 21.2219 8.37622 20.5382 9.11223 20.5386C9.84815 20.5389 10.4444 21.2231 10.444 22.0667C10.4436 22.9104 9.84653 23.594 9.11061 23.5937Z" stroke="#7D5BF7" stroke-width="0.625"/>
</g>
<path fill-rule="evenodd" clip-rule="evenodd" d="M8.526 22.4317C8.87453 22.4318 9.15722 22.0901 9.15734 21.6683C9.15758 21.2464 8.87513 20.9044 8.5266 20.9041C8.17807 20.904 7.89538 21.2457 7.89514 21.6675C7.89502 22.0894 8.17747 22.4315 8.526 22.4317Z" fill="white"/>
<path fill-rule="evenodd" clip-rule="evenodd" d="M9.83278 23.2386C9.9725 23.2386 10.0857 23.1274 10.0857 22.9903C10.0858 22.853 9.97274 22.7416 9.83302 22.7416C9.69329 22.7415 9.58008 22.8527 9.57996 22.9899C9.57996 23.1272 9.69305 23.2386 9.83278 23.2386Z" fill="white"/>
<path fill-rule="evenodd" clip-rule="evenodd" d="M18.9047 26.6332C18.9496 26.5702 18.9915 26.5052 19.0305 26.4387C19.1573 26.2221 19.253 25.9888 19.319 25.7513C19.3865 25.5079 19.2001 25.2677 18.9433 25.2657L15.2213 25.2361C14.9911 25.2343 14.8072 25.4269 14.827 25.6522C14.8594 26.0193 14.9879 26.3635 15.1899 26.6574C15.6761 26.4674 16.343 26.35 17.0793 26.35C17.7837 26.35 18.4247 26.4575 18.9047 26.6332Z" fill="#F66B6B"/>
<path d="M15.5109 27.0265C15.8408 27.3286 16.2689 27.5329 16.7516 27.5851C17.7684 27.663 18.4739 27.2379 18.9047 26.6332C18.4247 26.4575 17.7837 26.35 17.0793 26.35C16.3431 26.35 15.6761 26.4674 15.1899 26.6574C15.2823 26.7918 15.39 26.9157 15.5109 27.0265Z" fill="#E54545"/>
<g filter="url(#filter4_i_46_3171)">
<path d="M15.5109 27.0265C15.8408 27.3286 16.2689 27.5329 16.7516 27.5851C17.7684 27.663 18.4739 27.2379 18.9047 26.6332C18.4247 26.4575 17.7837 26.35 17.0793 26.35C16.3431 26.35 15.6761 26.4674 15.1899 26.6574C15.2823 26.7918 15.39 26.9157 15.5109 27.0265Z" fill="black"/>
</g>
<g opacity="0.35326" filter="url(#filter5_f_46_3171)">
<path d="M28.5835 25.3335C27.4703 25.5701 26.4748 25.324 26.36 24.7838C26.2452 24.2435 27.0545 23.6138 28.1677 23.3772C29.2809 23.1406 30.2764 23.3867 30.3913 23.9269C30.5061 24.4671 29.6967 25.0969 28.5835 25.3335Z" fill="#FF7A7A"/>
</g>
<g opacity="0.35326" filter="url(#filter6_f_46_3171)">
<path d="M8.1559 26.1352C6.83371 26.1352 5.76187 25.6875 5.76187 25.1352C5.76187 24.5829 6.83371 24.1352 8.1559 24.1352C9.47808 24.1352 10.5499 24.5829 10.5499 25.1352C10.5499 25.6875 9.47808 26.1352 8.1559 26.1352Z" fill="#FF7A7A"/>
</g>
<path fill-rule="evenodd" clip-rule="evenodd" d="M8.85804 2.18164C9.60303 2.91423 11.7371 4.40811 15.2605 6.66337C15.7718 6.42725 16.3902 6.28903 17.0564 6.28903C17.7248 6.28903 18.3452 6.42812 18.8574 6.66576C22.3807 4.40909 24.5147 2.91434 25.2594 2.18164C25.2594 2.18164 27.3426 4.55882 25.9537 11.3983C25.9537 11.3983 27.9265 13.485 29.5382 16.3996C29.3439 16.4007 21.2412 16.5707 18.3672 22.1618C17.505 22.5571 16.2404 23.7431 15.8381 22.2747C15.4357 20.8064 10.6649 15.9495 4.16971 17.1355C5.78335 14.2163 8.16314 11.3989 8.16314 11.3989C6.77336 4.55904 8.85804 2.18164 8.85804 2.18164Z" fill="#7D5BF7"/>
<path fill-rule="evenodd" clip-rule="evenodd" d="M18.3212 22.2747C18.7235 20.8064 23.4943 15.9495 29.9895 17.1355C28.3759 14.2163 25.9961 11.3989 25.9961 11.3989C19.1259 11.7703 17.9188 23.7431 18.3212 22.2747Z" fill="#7D5BF7"/>
<path d="M12.8658 7.97631C12.2155 8.0987 11.6403 7.97839 11.1399 7.61561C11.6876 9.09242 10.2589 11.1046 10.1514 10.9085C8.61392 7.46184 9.56855 4.25525 9.56855 4.25525C9.60069 4.5559 10.6998 5.79626 12.8658 7.97631Z" fill="white"/>
<g filter="url(#filter7_i_46_3171)">
<path d="M12.8658 7.97631C12.2155 8.0987 11.6403 7.97839 11.1399 7.61561C11.6876 9.09242 10.2589 11.1046 10.1514 10.9085C8.61392 7.46184 9.56855 4.25525 9.56855 4.25525C9.60069 4.5559 10.6998 5.79626 12.8658 7.97631Z" fill="black"/>
</g>
<path d="M23.9585 10.9085C23.851 11.1046 22.4224 9.09242 22.9699 7.61561C22.4696 7.97839 21.8942 8.0987 21.244 7.97631C23.4098 5.79626 24.5089 4.55601 24.5412 4.25536C24.5412 4.25536 25.4958 7.46184 23.9585 10.9085Z" fill="white"/>
<g filter="url(#filter8_i_46_3171)">
<path d="M23.9585 10.9085C23.851 11.1046 22.4224 9.09242 22.9699 7.61561C22.4696 7.97839 21.8942 8.0987 21.244 7.97631C23.4098 5.79626 24.5089 4.55601 24.5412 4.25536C24.5412 4.25536 25.4958 7.46184 23.9585 10.9085Z" fill="black"/>
</g>
<mask id="mask2_46_3171" style="mask-type:alpha" maskUnits="userSpaceOnUse" x="15" y="21" width="4" height="3">
<path d="M18.6665 22.3369C18.6665 22.9401 17.9275 23.4292 17.0158 23.4292C16.1043 23.4292 15.3652 22.9401 15.3652 22.3369C15.3652 21.7335 16.1043 21.2446 17.0158 21.2446C17.9275 21.2446 18.6665 21.7335 18.6665 22.3369Z" fill="white"/>
</mask>
<g mask="url(#mask2_46_3171)">
<path fill-rule="evenodd" clip-rule="evenodd" d="M19.2141 23.9658H14.8176V20.708H19.2141V23.9658Z" fill="#33067F"/>
</g>
<g opacity="0.75" filter="url(#filter9_f_46_3171)">
<path fill-rule="evenodd" clip-rule="evenodd" d="M9.27174 2.90527C9.27174 2.90527 7.3175 5.17185 8.62037 11.6933C8.62037 11.6933 3.7134 16.968 3.35251 22.3384C3.12868 25.6692 4.92254 29.0338 9.93225 30.1565C11.1482 30.429 13.7531 30.9331 16.646 30.8725C19.6566 30.9336 22.8138 30.4173 23.9861 30.1544C28.9922 29.0318 30.7847 25.6675 30.5611 22.3368C30.2004 16.967 25.2969 11.6926 25.2969 11.6926C26.5989 5.17174 24.6461 2.90527 24.6461 2.90527C23.9479 3.60385 21.9477 5.02898 18.645 7.18056C18.1647 6.95399 17.5833 6.82138 16.9567 6.82138C16.3323 6.82138 15.7526 6.95305 15.2733 7.17828C11.9706 5.02795 9.96998 3.60365 9.27174 2.90527Z" stroke="#390083" stroke-width="0.625" stroke-linecap="round" stroke-linejoin="round"/>
</g>
<defs>
<filter id="filter0_f_46_3171" x="11.6988" y="29.1619" width="10.6608" height="3.92384" filterUnits="userSpaceOnUse" color-interpolation-filters="sRGB">
<feFlood flood-opacity="0" result="BackgroundImageFix"/>
<feBlend mode="normal" in="SourceGraphic" in2="BackgroundImageFix" result="shape"/>
<feGaussianBlur stdDeviation="0.480964" result="effect1_foregroundBlur_46_3171"/>
</filter>
<filter id="filter1_f_46_3171" x="0.76683" y="0.533188" width="31.7245" height="32.0455" filterUnits="userSpaceOnUse" color-interpolation-filters="sRGB">
<feFlood flood-opacity="0" result="BackgroundImageFix"/>
<feBlend mode="normal" in="SourceGraphic" in2="BackgroundImageFix" result="shape"/>
<feGaussianBlur stdDeviation="0.577156" result="effect1_foregroundBlur_46_3171"/>
</filter>
<filter id="filter2_f_46_3171" x="22.8879" y="19.8981" width="3.94608" height="4.33602" filterUnits="userSpaceOnUse" color-interpolation-filters="sRGB">
<feFlood flood-opacity="0" result="BackgroundImageFix"/>
<feBlend mode="normal" in="SourceGraphic" in2="BackgroundImageFix" result="shape"/>
<feGaussianBlur stdDeviation="0.16398" result="effect1_foregroundBlur_46_3171"/>
</filter>
<filter id="filter3_f_46_3171" x="7.13835" y="19.8981" width="3.94608" height="4.33602" filterUnits="userSpaceOnUse" color-interpolation-filters="sRGB">
<feFlood flood-opacity="0" result="BackgroundImageFix"/>
<feBlend mode="normal" in="SourceGraphic" in2="BackgroundImageFix" result="shape"/>
<feGaussianBlur stdDeviation="0.16398" result="effect1_foregroundBlur_46_3171"/>
</filter>
<filter id="filter4_i_46_3171" x="15.1899" y="26.35" width="3.71472" height="1.24431" filterUnits="userSpaceOnUse" color-interpolation-filters="sRGB">
<feFlood flood-opacity="0" result="BackgroundImageFix"/>
<feBlend mode="normal" in="SourceGraphic" in2="BackgroundImageFix" result="shape"/>
<feColorMatrix in="SourceAlpha" type="matrix" values="0 0 0 0 0 0 0 0 0 0 0 0 0 0 0 0 0 0 127 0" result="hardAlpha"/>
<feOffset/>
<feGaussianBlur stdDeviation="0.5"/>
<feComposite in2="hardAlpha" operator="arithmetic" k2="-1" k3="1"/>
<feColorMatrix type="matrix" values="0 0 0 0 0.64623 0 0 0 0 0.169389 0 0 0 0 0.169389 0 0 0 0.5 0"/>
<feBlend mode="normal" in2="shape" result="effect1_innerShadow_46_3171"/>
</filter>
<filter id="filter5_f_46_3171" x="25.8682" y="22.8062" width="5.01491" height="3.09819" filterUnits="userSpaceOnUse" color-interpolation-filters="sRGB">
<feFlood flood-opacity="0" result="BackgroundImageFix"/>
<feBlend mode="normal" in="SourceGraphic" in2="BackgroundImageFix" result="shape"/>
<feGaussianBlur stdDeviation="0.240482" result="effect1_foregroundBlur_46_3171"/>
</filter>
<filter id="filter6_f_46_3171" x="5.28088" y="23.6543" width="5.75001" height="2.96193" filterUnits="userSpaceOnUse" color-interpolation-filters="sRGB">
<feFlood flood-opacity="0" result="BackgroundImageFix"/>
<feBlend mode="normal" in="SourceGraphic" in2="BackgroundImageFix" result="shape"/>
<feGaussianBlur stdDeviation="0.240482" result="effect1_foregroundBlur_46_3171"/>
</filter>
<filter id="filter7_i_46_3171" x="9.27563" y="4.25525" width="3.59021" height="6.66656" filterUnits="userSpaceOnUse" color-interpolation-filters="sRGB">
<feFlood flood-opacity="0" result="BackgroundImageFix"/>
<feBlend mode="normal" in="SourceGraphic" in2="BackgroundImageFix" result="shape"/>
<feColorMatrix in="SourceAlpha" type="matrix" values="0 0 0 0 0 0 0 0 0 0 0 0 0 0 0 0 0 0 127 0" result="hardAlpha"/>
<feOffset/>
<feGaussianBlur stdDeviation="0.5"/>
<feComposite in2="hardAlpha" operator="arithmetic" k2="-1" k3="1"/>
<feColorMatrix type="matrix" values="0 0 0 0 0.490196 0 0 0 0 0.356863 0 0 0 0 0.968627 0 0 0 1 0"/>
<feBlend mode="normal" in2="shape" result="effect1_innerShadow_46_3171"/>
</filter>
<filter id="filter8_i_46_3171" x="21.244" y="4.25536" width="3.59009" height="6.66646" filterUnits="userSpaceOnUse" color-interpolation-filters="sRGB">
<feFlood flood-opacity="0" result="BackgroundImageFix"/>
<feBlend mode="normal" in="SourceGraphic" in2="BackgroundImageFix" result="shape"/>
<feColorMatrix in="SourceAlpha" type="matrix" values="0 0 0 0 0 0 0 0 0 0 0 0 0 0 0 0 0 0 127 0" result="hardAlpha"/>
<feOffset/>
<feGaussianBlur stdDeviation="0.5"/>
<feComposite in2="hardAlpha" operator="arithmetic" k2="-1" k3="1"/>
<feColorMatrix type="matrix" values="0 0 0 0 0.490196 0 0 0 0 0.356863 0 0 0 0 0.968627 0 0 0 1 0"/>
<feBlend mode="normal" in2="shape" result="effect1_innerShadow_46_3171"/>
</filter>
<filter id="filter9_f_46_3171" x="1.86729" y="1.43846" width="30.179" height="30.9058" filterUnits="userSpaceOnUse" color-interpolation-filters="sRGB">
<feFlood flood-opacity="0" result="BackgroundImageFix"/>
<feBlend mode="normal" in="SourceGraphic" in2="BackgroundImageFix" result="shape"/>
<feGaussianBlur stdDeviation="0.577156" result="effect1_foregroundBlur_46_3171"/>
</filter>
</defs>
</svg>
