<svg width="139" height="142" viewBox="0 0 139 142" fill="none" xmlns="http://www.w3.org/2000/svg">
<rect width="139" height="142" fill="#E5E5E5"/>
<g clip-path="url(#clip0_10765_165284)">
<rect width="1440" height="1854" transform="translate(-650 -268)" fill="#0D2321"/>
<path d="M124.078 18.7631L124.89 10.4953C124.915 10.3574 124.988 10.2325 125.097 10.1426C125.206 10.0526 125.343 10.0033 125.485 10.0033C125.627 10.0033 125.764 10.0526 125.873 10.1426C125.982 10.2325 126.055 10.3574 126.08 10.4953L126.873 18.7444C126.927 19.3828 127.213 19.9803 127.678 20.4263C128.144 20.8724 128.757 21.1367 129.404 21.1706L138.452 21.7119C138.592 21.7365 138.718 21.809 138.809 21.9164C138.9 22.0239 138.95 22.1596 138.95 22.2997C138.95 22.4399 138.9 22.5756 138.809 22.6831C138.718 22.7905 138.592 22.863 138.452 22.8876L129.385 23.4289C128.742 23.474 128.135 23.7421 127.672 24.1859C127.209 24.6298 126.919 25.2209 126.854 25.8551L126.061 34.1228C126.036 34.2608 125.963 34.3857 125.854 34.4756C125.745 34.5656 125.608 34.6149 125.466 34.6149C125.324 34.6149 125.187 34.5656 125.078 34.4756C124.969 34.3857 124.896 34.2608 124.871 34.1228L124.078 25.8737C124.016 25.2382 123.728 24.645 123.264 24.2005C122.8 23.7559 122.191 23.489 121.547 23.4475L112.499 22.9063C112.359 22.8816 112.233 22.8092 112.142 22.7017C112.051 22.5943 112.001 22.4586 112.001 22.3184C112.001 22.1783 112.051 22.0425 112.142 21.9351C112.233 21.8276 112.359 21.7552 112.499 21.7305L121.547 21.1706C122.191 21.1373 122.802 20.8755 123.267 20.4333C123.732 19.9911 124.02 19.3981 124.078 18.7631V18.7631Z" fill="#B8D1D0"/>
<path d="M109.685 57.3396C111.962 56.9486 114.283 56.8795 116.579 57.1344C117.364 57.279 118.175 57.208 118.922 56.9291L118.638 56.6864C113.218 52.0705 107.383 47.9537 101.204 44.3875C92.9876 39.6471 87.4533 27.74 85.8289 24.138C84.5442 21.3455 82.2554 19.124 79.4067 17.9046C80.8003 17.8198 82.1951 18.0535 83.4825 18.5875C84.7698 19.1216 85.9153 19.9416 86.8299 20.984C88.2655 22.1597 93.4598 31.3607 96.142 31.6219C97.1 31.5871 98.0507 31.4431 98.9753 31.1927H99.1831L100.449 30.8941H100.581L101.582 30.6515L103.471 30.1102L103.301 29.9983C100.43 28.132 98.5975 24.9406 96.5953 21.5066C95.5415 19.6685 94.2736 17.9585 92.8176 16.4115C92.411 15.978 91.9688 15.5784 91.4955 15.2171C91.0106 14.8674 90.4991 14.5555 89.9655 14.2839C88.9833 13.7987 88.0766 13.4068 87.1133 13.0335C86.15 12.6603 85.2244 12.3243 84.5256 11.951L81.8622 10.6447L76.4979 8.06915C72.8635 6.35887 69.1295 4.86321 65.3158 3.59003C61.4365 2.3294 57.4363 1.46635 53.3783 1.01451C52.3313 0.887419 51.2784 0.812681 50.2238 0.790566C48.9709 0.781518 47.7319 1.0493 46.5973 1.57438C45.5395 2.04096 44.7083 2.54487 43.9528 2.86214C43.1973 3.17941 42.064 3.6833 41.1951 4.13121C37.5183 5.87722 34.047 8.01772 30.8441 10.514C29.1769 11.7396 27.6106 13.0938 26.1598 14.5639C24.9387 15.8481 23.9026 17.2925 23.0809 18.8564C23.9468 18.7 24.8265 18.6312 25.7065 18.6511C28.711 18.8252 31.6748 19.4222 34.5085 20.4241C31.8641 20.4241 18.1511 19.6962 10.8412 24.5486C9.43617 25.4832 8.27187 26.7295 7.44125 28.1879C7.13904 28.7665 6.74231 29.6063 6.30787 30.6515C6.25301 30.804 6.19 30.9535 6.11903 31.0994C4.85336 34.3764 3.82449 37.738 3.04018 41.1588C1.62878 47.0987 0.912602 53.1792 0.905762 59.2806C0.905762 60.2138 0.905762 61.1469 0.905762 62.0988C0.905762 63.0506 1.03795 63.6851 1.11351 64.4876V64.9915C1.18906 65.6883 1.28355 66.3788 1.39688 67.0631L1.51021 67.7163C1.78876 69.3978 2.16714 71.0618 2.64348 72.6994C3.54145 75.5381 4.81147 78.2486 6.4212 80.7618C7.17674 81.6763 7.93233 82.0496 8.59343 81.191L9.06564 80.5378C9.61341 79.7726 10.4256 78.6715 11.4078 77.1038L12.6167 75.2375V75.1256L13.7689 73.2592L14.0334 72.8487C14.8833 71.4863 15.9221 69.9932 16.791 68.3882L17.1877 67.735L18.3588 65.7567L18.6988 65.1968L20.191 62.64L20.5499 62.0241C20.9466 61.3149 21.3432 60.6057 21.7587 59.8965C21.8909 59.6352 22.0421 59.3739 22.1932 59.1127L23.7232 56.3132C25.4232 53.1591 27.0853 49.9118 28.5964 46.683C29.333 45.1527 30.0886 43.641 30.9008 42.1479C32.0728 39.8809 33.4444 37.72 34.9996 35.6905C35.8022 34.6456 36.7352 33.705 37.7763 32.891C38.8039 32.0527 40.073 31.5564 41.4029 31.4727C37.1718 35.2053 33.5831 45.3953 30.5987 56.5931C28.7098 63.8157 29.6164 67.3244 24.0443 84.3451C18.5099 101.03 23.591 107.114 30.3531 111.948C44.3873 121.466 59.3659 121.559 60.9903 134.344L61.8593 141.044L65.3725 135.258C66.6325 133.139 67.6283 130.876 68.338 128.521V128.203L71.1902 130.294C72.9756 127.036 73.7166 123.32 73.3152 119.637C72.9138 115.953 71.3888 112.478 68.9425 109.671C69.1691 110.156 69.3958 110.641 69.6035 111.145C70.4697 113.075 71.1037 115.098 71.4924 117.173C71.902 119.437 71.7332 121.766 71.0013 123.948L70.0758 126.542L67.828 124.9C67.4898 124.661 67.1292 124.455 66.7513 124.284C66.581 125.543 66.3287 126.79 65.9959 128.017C65.3537 130.159 64.4465 132.215 63.2948 134.138C61.066 116.52 44.1039 117.117 34.3008 109.876C24.4976 102.635 23.7232 94.0126 29.7676 79.1008C31.6128 74.5154 32.9553 69.7477 33.7719 64.8795C33.9419 63.7784 34.1496 62.696 34.3952 61.6135C34.3845 61.4582 34.3845 61.3023 34.3952 61.1469L34.5652 60.3631C34.5652 62.0427 34.5653 63.7038 34.8297 65.3461C34.9206 66.9315 35.2386 68.4961 35.7741 69.9932C36.0126 70.6368 36.3786 71.2268 36.8508 71.7289C37.0775 71.9715 37.3418 72.1768 37.7007 72.5314C37.9565 72.8133 38.2276 73.0812 38.5129 73.3339C39.7157 74.2369 41.0542 74.9485 42.4796 75.4428C45.4944 76.4835 48.629 77.148 51.8105 77.4211C54.8705 77.7757 57.9871 77.8504 61.1226 77.925H61.5948C64.8493 77.9437 68.0785 78.4923 71.1524 79.5487C73.9009 80.4601 76.7728 80.9572 79.6712 81.0231C85.7693 81.6033 91.7896 82.8105 97.6343 84.6251C100.126 84.6995 102.618 84.4802 105.057 83.9718C106.776 83.6359 108.476 83.188 110.157 82.6841C113.935 81.0978 116.542 76.7866 111.385 77.3651C110.172 77.4417 108.967 77.6039 107.777 77.8503C106.059 78.1863 104.34 79.0821 102.111 79.7167C100.015 80.1879 97.832 80.1301 95.7643 79.5487C93.9551 78.8266 92.0435 78.386 90.0977 78.2423C91.0071 77.7309 92.0198 77.425 93.0631 77.3465C94.1209 77.3465 95.122 77.3465 96.0665 77.3465C97.8358 77.5674 99.6303 77.4917 101.374 77.1225C102.961 76.6746 104.604 75.4802 106.625 74.6777C108.595 73.8602 110.703 73.417 112.84 73.3712H112.688C113.161 73.3712 113.633 73.3712 114.124 73.3712C115.616 71.3183 116.882 69.116 116.391 67.1751C115.813 66.4051 115.008 65.8313 114.086 65.5328C112.953 65.1408 106.814 63.909 104.755 62.0427C104 60.811 104.736 58.3661 109.685 57.3396ZM77.1779 32.7231C76.6396 33.1909 76.237 33.7919 76.0113 34.4642C75.7856 35.1365 75.745 35.856 75.8935 36.549C76.0635 38.7326 73.4191 40.4683 70.2269 40.8042C66.1281 41.2521 63.937 38.9379 64.5603 36.1757C65.637 31.6219 63.2759 33.115 61.6892 34.944C61.6577 34.9797 61.6155 35.0047 61.5687 35.0153C61.522 35.0258 61.473 35.0215 61.4289 35.0028C61.3848 34.9841 61.3479 34.9521 61.3234 34.9113C61.2989 34.8706 61.2881 34.8232 61.2926 34.776C61.9726 30.0916 64.7492 29.905 65.9959 29.905C69.7445 30.1684 73.458 30.7935 77.0835 31.7713C77.1755 31.8086 77.2555 31.87 77.3148 31.9489C77.3742 32.0278 77.4107 32.1212 77.4204 32.2191C77.4301 32.3169 77.4127 32.4156 77.3699 32.5043C77.3272 32.5931 77.2608 32.6687 77.1779 32.7231Z" fill="#EF9C32"/>
</g>
<defs>
<clipPath id="clip0_10765_165284">
<rect width="1440" height="1854" fill="white" transform="translate(-650 -268)"/>
</clipPath>
</defs>
</svg>
