<svg width="124" height="124" viewBox="0 0 124 124" fill="none" xmlns="http://www.w3.org/2000/svg">
<g clip-path="url(#clip0_2209_42653)">
<path d="M41.333 90.3255V116.337C41.333 120.576 44.7671 124.001 48.9953 124.001H75.004C79.2425 124.001 82.6663 120.566 82.6663 116.337V103.331C82.6663 97.6175 84.9764 92.4501 88.7199 88.7165C92.4634 84.9725 97.6301 82.6622 103.333 82.6622H116.337C120.576 82.6622 124 79.2276 124 74.9989V48.9973C124 44.7582 120.566 41.334 116.337 41.334H90.339C86.1005 41.334 82.6767 44.7685 82.6767 48.9973V62.6324C82.6767 73.6993 73.7046 82.6622 62.6494 82.6622H49.016C44.7774 82.6622 41.3536 86.0967 41.3536 90.3255H41.333Z" fill="#001405"/>
<path d="M0 48.9957V75.0043C0 79.2428 3.43413 82.6667 7.66234 82.6667H33.671C37.9095 82.6667 41.3333 79.2325 41.3333 75.0043V62C41.3333 56.2868 43.6434 51.1201 47.3869 47.3869C51.1304 43.6434 56.2971 41.3333 62 41.3333H75.0043C79.2428 41.3333 82.6667 37.8992 82.6667 33.671V7.66234C82.6667 3.42382 79.2325 0 75.0043 0H49.006C44.7675 0 41.3436 3.43413 41.3436 7.66234V21.2957C41.3436 32.3613 32.3716 41.323 21.3164 41.323H7.66234C3.42382 41.323 0 44.7572 0 48.9854V48.9957Z" fill="#001405"/>
</g>
<defs>
<clipPath id="clip0_2209_42653">
<rect width="124" height="124" fill="white"/>
</clipPath>
</defs>
</svg>
