<svg width="64" height="64" viewBox="0 0 64 64" fill="none" xmlns="http://www.w3.org/2000/svg">
<circle cx="32" cy="32" r="32" fill="#0B0E11"/>
<path d="M20.6004 17.2705L31.8725 10.7091L43.1445 17.2705L39.0004 19.6944L31.8725 15.557L24.7446 19.6944L20.6004 17.2705ZM43.1445 25.5453L39.0004 23.1213L31.8725 27.2587L24.7446 23.1213L20.6004 25.5453V30.3931L27.7283 34.5305V42.8053L31.8725 45.2292L36.0166 42.8053V34.5305L43.1445 30.3931V25.5453ZM43.1445 38.6679V33.82L39.0004 36.244V41.0918L43.1445 38.6679ZM46.0869 40.3814L38.959 44.5188V49.3666L50.231 42.8053V29.6826L46.0869 32.1066V40.3814ZM41.9428 21.4079L46.0869 23.8318V28.6796L50.231 26.2557V21.4079L46.0869 18.9839L41.9428 21.4079ZM27.7283 46.274V51.1219L31.8725 53.5458L36.0166 51.1219V46.274L31.8725 48.6979L27.7283 46.274ZM20.6004 38.6679L24.7446 41.0918V36.244L20.6004 33.82V38.6679ZM27.7283 21.4079L31.8725 23.8318L36.0166 21.4079L31.8725 18.9839L27.7283 21.4079ZM17.6581 23.8318L21.8022 21.4079L17.6581 18.9839L13.5139 21.4079V26.2557L17.6581 28.6796V23.8318ZM17.6581 32.1066L13.5139 29.6826V42.8053L24.786 49.3666V44.5188L17.6581 40.3814V32.1066Z" fill="#F1B90C"/>
</svg>
