<svg width="512" height="512" viewBox="0 0 512 512" fill="none" xmlns="http://www.w3.org/2000/svg"><circle cx="256" cy="256" r="256" fill="#0F1013"/><g filter="url(#filter0_d_2257_156)"><path d="M190.991 325.512C191.159 325.681 191.348 325.851 191.516 326.021L198.154 316.504C203.658 305.589 205.801 295.626 205.864 287.147C205.78 282.612 205.149 278.119 204.015 273.753C203.217 271.124 202.629 268.411 202.25 265.677C202.25 265.656 202.25 265.614 202.25 265.571C201.998 263.748 201.83 261.883 201.746 260.018C200.591 229.963 223.741 204.21 253.445 202.515L253.235 202.324C260.315 201.879 270.629 203.447 279.284 201.158C288.255 198.594 296.405 193.613 302.876 186.745C303.191 186.406 303.549 186.109 303.925 185.855L310.017 177.144C284.515 159.297 250.861 154.401 219.981 167.14C171.496 187.106 148.262 242.977 168.072 291.896C173.029 304.126 180.193 314.766 188.932 323.52C189.604 324.198 190.277 324.854 190.97 325.512H190.991Z" fill="url(#paint0_linear_2257_156)"/></g><g filter="url(#filter1_d_2257_156)"><path d="M314.47 193.698C314.322 194.143 314.155 194.609 313.902 195.033C308.167 205.864 305.731 222.227 306.255 228.692C307.118 239.437 310.373 246.411 309.366 254.635C310.122 284.457 287.014 309.784 257.54 311.418C257.54 311.418 257.498 311.418 257.477 311.418C250.986 311.841 250.229 311.205 244.285 311.48C232.016 312.032 218.929 317.204 209.853 326.868L203.782 335.58C205.526 336.745 207.291 337.848 209.076 338.95C209.895 339.417 210.715 339.861 211.534 340.306C235.503 353.066 264.682 355.418 291.719 344.27C340.204 324.283 363.439 268.412 343.628 219.492C338.208 206.118 330.121 194.63 320.247 185.432L314.47 193.698Z" fill="url(#paint1_linear_2257_156)"/></g><defs><filter id="filter0_d_2257_156" x="149.503" y="150.036" width="172.012" height="189.015" filterUnits="userSpaceOnUse" color-interpolation-filters="sRGB"><feFlood flood-opacity="0" result="BackgroundImageFix"/><feColorMatrix in="SourceAlpha" type="matrix" values="0 0 0 0 0 0 0 0 0 0 0 0 0 0 0 0 0 0 127 0" result="hardAlpha"/><feOffset dy="1.53293"/><feGaussianBlur stdDeviation="5.7485"/><feComposite in2="hardAlpha" operator="out"/><feColorMatrix type="matrix" values="0 0 0 0 0 0 0 0 0 0 0 0 0 0 0 0 0 0 0.6 0"/><feBlend mode="normal" in2="BackgroundImageFix" result="effect1_dropShadow_2257_156"/><feBlend mode="normal" in="SourceGraphic" in2="effect1_dropShadow_2257_156" result="shape"/></filter><filter id="filter1_d_2257_156" x="192.285" y="175.468" width="169.912" height="188.972" filterUnits="userSpaceOnUse" color-interpolation-filters="sRGB"><feFlood flood-opacity="0" result="BackgroundImageFix"/><feColorMatrix in="SourceAlpha" type="matrix" values="0 0 0 0 0 0 0 0 0 0 0 0 0 0 0 0 0 0 127 0" result="hardAlpha"/><feOffset dy="1.53293"/><feGaussianBlur stdDeviation="5.7485"/><feComposite in2="hardAlpha" operator="out"/><feColorMatrix type="matrix" values="0 0 0 0 0 0 0 0 0 0 0 0 0 0 0 0 0 0 0.6 0"/><feBlend mode="normal" in2="BackgroundImageFix" result="effect1_dropShadow_2257_156"/><feBlend mode="normal" in="SourceGraphic" in2="effect1_dropShadow_2257_156" result="shape"/></filter><linearGradient id="paint0_linear_2257_156" x1="170.044" y1="160" x2="319.514" y2="307.194" gradientUnits="userSpaceOnUse"><stop stop-color="#CDF666"/><stop offset="0.495046" stop-color="#BEFF5C"/><stop offset="1" stop-color="#93E026"/></linearGradient><linearGradient id="paint1_linear_2257_156" x1="212.698" y1="185.432" x2="362.084" y2="330.506" gradientUnits="userSpaceOnUse"><stop stop-color="#CDF666"/><stop offset="0.495046" stop-color="#BEFF5C"/><stop offset="1" stop-color="#93E026"/></linearGradient></defs></svg>
