<svg xmlns="http://www.w3.org/2000/svg" width="12" height="12" viewBox="0 0 488.3 488.3"><path fill="#fff" d="M314.25 85.4h-227c-21.3 0-38.6 17.3-38.6 38.6v325.7c0 21.3 17.3 38.6 38.6 38.6h227c21.3 0 38.6-17.3 38.6-38.6V124c-.1-21.3-17.4-38.6-38.6-38.6zm11.5 364.2a11.61 11.61 0 0 1-11.6 11.6h-227a11.61 11.61 0 0 1-11.6-11.6V124a11.61 11.61 0 0 1 11.6-11.6h227a11.61 11.61 0 0 1 11.6 11.6v325.6zM401.05 0h-227c-21.3 0-38.6 17.3-38.6 38.6 0 7.5 6 13.5 13.5 13.5s13.5-6 13.5-13.5a11.61 11.61 0 0 1 11.6-11.6h227a11.61 11.61 0 0 1 11.6 11.6v325.7a11.61 11.61 0 0 1-11.6 11.6c-7.5 0-13.5 6-13.5 13.5s6 13.5 13.5 13.5c21.3 0 38.6-17.3 38.6-38.6V38.6c0-21.3-17.3-38.6-38.6-38.6z"/></svg>