<svg xmlns="http://www.w3.org/2000/svg" width="64" height="64" viewBox="0 0 64 64" fill="none">
  <defs>
    <linearGradient id="grad" x1="0" y1="0" x2="64" y2="64" gradientUnits="userSpaceOnUse">
      <stop offset="0" stop-color="#3B82F6"/>
      <stop offset="1" stop-color="#10B981"/>
    </linearGradient>
    <linearGradient id="grad2" x1="16" y1="8" x2="48" y2="56" gradientUnits="userSpaceOnUse">
      <stop offset="0" stop-color="#7DD3FC"/>
      <stop offset="1" stop-color="#34D399"/>
    </linearGradient>
    <filter id="shadow" x="-20%" y="-20%" width="140%" height="140%" color-interpolation-filters="sRGB">
      <feDropShadow dx="0" dy="2" stdDeviation="2" flood-color="#0B1220" flood-opacity="0.6"/>
    </filter>
  </defs>
  <rect x="0" y="0" width="64" height="64" rx="14" fill="#0A0B0D"/>
  <circle cx="32" cy="32" r="26" stroke="url(#grad)" stroke-width="2" opacity="0.6"/>
  <path d="M32 12C38.5 16 44 18 50 20V34.5C50 44.5 43 52 32 54C21 52 14 44.5 14 34.5V20C20 18 25.5 16 32 12Z" fill="#0F172A" stroke="url(#grad)" stroke-width="2" filter="url(#shadow)"/>
  <path d="M22 28H42M30 28V44" stroke="url(#grad2)" stroke-width="4" stroke-linecap="round"/>
  <circle cx="22" cy="28" r="2" fill="#3B82F6"/>
  <circle cx="42" cy="28" r="2" fill="#10B981"/>
</svg>
