<?xml version="1.0" encoding="utf-8"?>
<!-- Generator: Adobe Illustrator 16.0.0, SVG Export Plug-In . SVG Version: 6.00 Build 0)  -->
<!DOCTYPE svg PUBLIC "-//W3C//DTD SVG 1.1//EN" "http://www.w3.org/Graphics/SVG/1.1/DTD/svg11.dtd">
<svg version="1.1" id="Layer_1" xmlns="http://www.w3.org/2000/svg" xmlns:xlink="http://www.w3.org/1999/xlink" x="0px" y="0px"
	 width="256px" height="256px" viewBox="0 0 256 256" enable-background="new 0 0 256 256" xml:space="preserve">
<g>
	<polygon points="160.334,90.332 160.334,52.082 23.084,52.082 23.084,227.082 72.584,227.082 72.584,167.082 149.834,167.082 
		149.834,128.832 72.584,128.832 72.584,90.332 	"/>
	<path fill="#6D6E71" d="M205.084,76.582c-8.668,0-15.668-2.414-21-7.25c-5.336-4.832-8-10.832-8-18c0-7.164,2.664-13.164,8-18
		c5.332-4.832,12.332-7.25,21-7.25c8.664,0,15.664,2.293,21,6.875c5.332,4.586,8,10.461,8,17.625c0,7.5-2.625,13.711-7.875,18.625
		C220.959,74.125,213.916,76.582,205.084,76.582z M181.334,227.082v-135.5h47.5v135.5H181.334z"/>
</g>
</svg>
