<svg version="1.1" id="Layer_1" xmlns="http://www.w3.org/2000/svg" xmlns:xlink="http://www.w3.org/1999/xlink" x="0px" y="0px"
	 width="100%" viewBox="0 0 500 500" enable-background="new 0 0 500 500" xml:space="preserve">
<path fill="#000000" opacity="1.000000" stroke="none" 
	d="
M287.000000,501.000000 
	C191.333359,501.000000 96.166710,501.000000 1.000051,501.000000 
	C1.000034,334.333405 1.000034,167.666794 1.000017,1.000141 
	C167.666565,1.000094 334.333130,1.000094 500.999756,1.000047 
	C500.999847,167.666519 500.999847,334.333038 500.999939,500.999786 
	C429.833344,501.000000 358.666656,501.000000 287.000000,501.000000 
M5.013147,257.934967 
	C5.008766,288.181396 4.989207,318.427887 5.046554,348.674194 
	C5.049310,350.127808 5.730297,351.580078 6.018004,353.958191 
	C6.005266,357.618347 5.577874,361.341980 6.125183,364.916382 
	C6.491642,367.309631 7.642403,370.501709 9.477897,371.590820 
	C17.083647,376.103638 25.083523,379.952179 32.971581,384.029388 
	C32.971581,384.029388 32.968525,384.065521 33.316048,384.658997 
	C40.818226,388.761627 48.311413,392.880798 55.824642,396.963074 
	C68.113190,403.640076 80.353500,410.409607 92.731003,416.917938 
	C102.027000,421.805908 111.506317,426.345245 120.926392,431.103516 
	C120.926392,431.103516 120.992340,431.088898 121.364136,431.669678 
	C134.552948,438.765045 147.694794,445.950500 160.973236,452.873962 
	C163.408951,454.143951 166.399597,454.349670 169.561005,455.005951 
	C169.561005,455.005951 169.989517,455.022217 170.285919,455.543549 
	C171.316925,455.921173 172.347931,456.298798 174.300690,456.891479 
	C179.312729,455.697662 184.780045,455.408630 189.258820,453.155029 
	C209.844788,442.796600 230.153183,431.886627 250.564255,421.180450 
	C262.225952,415.063599 273.920227,409.008209 285.553131,402.837189 
	C311.973633,388.821716 338.355286,374.733093 364.771423,360.709351 
	C393.159058,345.638947 421.595032,330.659424 449.956146,315.539307 
	C463.784271,308.167114 477.551392,300.673645 491.184387,292.949585 
	C493.204224,291.805206 494.329376,289.081635 496.007050,286.140228 
	C495.963593,250.057404 495.920105,213.974564 496.008118,177.513733 
	C496.008118,177.513733 495.961853,177.116180 496.770752,176.726730 
	C496.847168,169.929474 496.998566,163.131668 496.950104,156.335297 
	C496.937134,154.517258 496.313782,152.703583 495.996185,150.174088 
	C494.736389,148.993332 493.646637,147.512939 492.186859,146.684692 
	C486.449677,143.429504 480.600342,140.371597 474.784821,137.255051 
	C452.215485,125.160057 429.661591,113.036057 407.062500,100.996880 
	C398.507660,96.439476 389.810699,92.149323 381.240540,87.620003 
	C364.782349,78.921867 348.502960,69.868378 331.829193,61.608734 
	C328.247040,59.834259 322.439606,59.100334 319.129333,60.783031 
	C295.815887,72.633797 272.909332,85.282982 249.828476,97.594040 
	C233.768875,106.160065 217.624908,114.567757 201.543488,123.093086 
	C178.638062,135.236053 155.784897,147.477951 132.852859,159.570358 
	C117.048286,167.904358 101.063835,175.899506 85.309692,184.326370 
	C60.255703,197.727737 35.292137,211.300110 10.412235,225.021225 
	C8.470556,226.092041 7.483994,228.894745 5.220882,231.248032 
	C5.204369,239.835648 5.187856,248.423248 5.013147,257.934967 
z"/>
<path fill="#D99D81" opacity="1.000000" stroke="none" 
	d="
M6.053523,230.892517 
	C7.483994,228.894745 8.470556,226.092041 10.412235,225.021225 
	C35.292137,211.300110 60.255703,197.727737 85.309692,184.326370 
	C101.063835,175.899506 117.048286,167.904358 132.852859,159.570358 
	C155.784897,147.477951 178.638062,135.236053 201.543488,123.093086 
	C217.624908,114.567757 233.768875,106.160065 249.828476,97.594040 
	C272.909332,85.282982 295.815887,72.633797 319.129333,60.783031 
	C322.439606,59.100334 328.247040,59.834259 331.829193,61.608734 
	C348.502960,69.868378 364.782349,78.921867 381.240540,87.620003 
	C389.810699,92.149323 398.507660,96.439476 407.062500,100.996880 
	C429.661591,113.036057 452.215485,125.160057 474.784821,137.255051 
	C480.600342,140.371597 486.449677,143.429504 492.186859,146.684692 
	C493.646637,147.512939 494.736389,148.993332 495.937866,150.824707 
	C495.827484,151.666367 495.775421,151.857407 495.506165,152.223999 
	C494.847717,153.166306 494.406403,153.933075 493.669495,154.888443 
	C471.063019,167.302887 448.821930,179.658234 426.421448,191.717560 
	C404.751526,203.383606 382.907501,214.725983 361.157990,226.244568 
	C332.054321,241.657913 302.978058,257.123138 273.870880,272.529846 
	C251.968140,284.123169 230.143967,295.872711 208.068924,307.129333 
	C197.371414,312.584259 187.484161,320.360138 174.300629,320.406586 
	C173.318146,320.265991 172.655365,320.223267 171.673294,320.064026 
	C170.904663,319.919067 170.455322,319.890625 169.797577,319.770660 
	C169.589172,319.679169 169.134064,319.690186 169.105438,319.733856 
	C169.076828,319.777527 169.168381,319.827789 168.924072,319.579254 
	C166.456085,318.559845 164.232407,317.789001 161.897064,316.924683 
	C161.785370,316.831207 161.496231,316.866394 161.246338,316.607178 
	C158.673538,315.258331 156.350601,314.168671 153.759964,312.858521 
	C139.425186,305.123047 125.366127,297.592987 111.289261,290.096436 
	C87.978424,277.682312 64.656120,265.289734 41.077942,252.647995 
	C38.257523,251.162430 35.697815,249.916916 33.135620,248.720123 
	C33.133133,248.768814 33.229973,248.757324 33.036301,248.488464 
	C31.266628,247.412277 29.690630,246.604950 28.086388,245.845047 
	C28.058146,245.892487 28.155663,245.944275 28.048304,245.720596 
	C27.688040,245.254959 27.386675,245.138565 26.900642,245.035980 
	C26.764435,244.924240 26.414219,244.885574 26.165001,244.627365 
	C23.994228,243.465332 22.072674,242.561493 20.144463,241.708008 
	C20.137806,241.758347 20.239319,241.754913 20.064020,241.490891 
	C19.297878,241.051819 18.707033,240.876785 18.149487,240.740570 
	C18.182785,240.779404 18.250568,240.702774 18.127234,240.445892 
	C17.337046,239.843567 16.670191,239.498108 15.861668,239.039566 
	C15.719999,238.926483 15.360019,238.883453 15.129398,238.645523 
	C14.274792,238.204315 13.650807,238.001022 13.051430,237.853088 
	C13.076037,237.908447 13.183685,237.852844 13.006437,237.592285 
	C12.245332,237.125061 11.661474,236.918381 11.111874,236.761810 
	C11.146131,236.811920 11.238434,236.733047 11.061286,236.467438 
	C9.308330,235.146500 7.732521,234.091156 6.073601,232.686401 
	C6.011502,231.855499 6.032514,231.374008 6.053523,230.892517 
M377.600739,161.889465 
	C380.667114,162.202072 383.222443,161.653748 384.561584,157.728699 
	C386.401031,156.307175 388.200989,154.830795 390.086731,153.473526 
	C398.828735,147.181305 397.989655,134.354538 390.066437,128.583282 
	C387.522736,126.730461 385.063965,124.647560 382.270416,123.270058 
	C366.803070,115.643021 350.279419,114.893578 333.521149,116.403908 
	C323.469727,117.309799 313.890045,120.090820 305.261078,125.455582 
	C300.429230,128.459656 295.937897,131.960205 295.093750,138.993729 
	C293.631042,143.693604 295.365173,147.722534 298.507355,150.858826 
	C301.648407,153.993958 305.481567,156.435654 309.245850,159.846786 
	C311.025391,160.520126 312.804962,161.193466 314.784637,161.737061 
	C314.784637,161.737061 314.971771,161.884979 315.350800,162.513702 
	C317.896698,163.507126 320.366943,164.821899 323.000793,165.441559 
	C339.522827,169.328766 356.009430,169.471420 372.328583,164.322601 
	C373.968658,163.805176 375.386047,162.581894 376.882294,161.794891 
	C376.882294,161.794891 376.777893,161.755997 377.600739,161.889465 
M105.882851,237.813782 
	C104.154869,245.448441 108.790619,250.078064 114.054550,254.000732 
	C122.822578,260.534668 133.122986,263.322571 143.801041,264.485352 
	C160.886414,266.345825 177.648071,265.437897 193.932175,256.995453 
	C201.180023,253.038696 207.639755,248.492249 207.071014,238.884918 
	C206.596603,230.871033 201.015137,226.607376 194.879837,223.057312 
	C185.199936,217.456207 174.461792,215.205795 163.451233,214.441483 
	C146.741150,213.281509 130.569229,215.428970 115.929779,224.213867 
	C111.112068,227.104889 106.590157,230.709229 105.882851,237.813782 
M200.795639,187.871933 
	C201.216675,191.165863 200.478531,195.482300 202.296875,197.543686 
	C206.244781,202.019226 211.009445,206.337097 216.312607,208.946106 
	C230.716675,216.032516 246.303162,217.152847 262.066193,215.339890 
	C271.287506,214.279297 280.488678,212.776917 289.026978,207.100296 
	C295.003693,203.881012 300.536072,200.120148 301.838684,192.856140 
	C303.035614,186.181229 298.159027,178.669098 290.774506,174.350174 
	C281.674072,169.027695 271.759399,166.411819 261.429626,165.434662 
	C244.778839,163.859558 228.413727,165.128464 213.459793,173.398361 
	C207.982361,176.427536 201.654007,179.393387 200.795639,187.871933 
z"/>
<path fill="#C26851" opacity="1.000000" stroke="none" 
	d="
M174.620331,320.504486 
	C187.484161,320.360138 197.371414,312.584259 208.068924,307.129333 
	C230.143967,295.872711 251.968140,284.123169 273.870880,272.529846 
	C302.978058,257.123138 332.054321,241.657913 361.157990,226.244568 
	C382.907501,214.725983 404.751526,203.383606 426.421448,191.717560 
	C448.821930,179.658234 471.063019,167.302887 493.896576,155.270355 
	C494.601929,157.418915 494.840179,159.370880 494.956085,161.330078 
	C495.246124,166.231384 495.480682,171.135986 495.811768,176.304703 
	C495.911316,176.752151 495.936584,176.934158 495.961853,177.116180 
	C495.961853,177.116180 496.008118,177.513733 495.715759,178.063568 
	C495.274933,179.758392 494.997559,180.903275 494.996735,182.048340 
	C494.972229,215.635513 494.964294,249.222733 495.011749,282.809845 
	C495.013763,284.236511 495.570251,285.662415 495.868439,287.088654 
	C494.329376,289.081635 493.204224,291.805206 491.184387,292.949585 
	C477.551392,300.673645 463.784271,308.167114 449.956146,315.539307 
	C421.595032,330.659424 393.159058,345.638947 364.771423,360.709351 
	C338.355286,374.733093 311.973633,388.821716 285.553131,402.837189 
	C273.920227,409.008209 262.225952,415.063599 250.564255,421.180450 
	C230.153183,431.886627 209.844788,442.796600 189.258820,453.155029 
	C184.780045,455.408630 179.312729,455.697662 173.989182,456.371155 
	C173.810364,452.549835 173.943054,449.248810 174.120483,445.586975 
	C174.135803,444.500885 174.106384,443.775665 174.120468,442.585968 
	C174.135849,438.399963 174.107742,434.678406 174.125366,430.593872 
	C174.140442,429.501282 174.109756,428.771637 174.122131,427.570557 
	C174.133575,419.716644 174.101990,412.334229 174.116028,404.563110 
	C174.132614,403.132782 174.103546,402.091125 174.119125,400.577332 
	C174.135468,391.055237 174.107178,382.005280 174.124786,372.592529 
	C174.142654,371.500183 174.114609,370.770660 174.208160,369.665588 
	C174.246216,365.511627 174.162659,361.733185 174.125549,357.545288 
	C174.142410,355.764160 174.112839,354.392517 174.107025,352.759583 
	C174.114029,352.324158 174.097305,352.150055 174.123993,351.553894 
	C174.134094,349.436432 174.100800,347.740997 174.112976,345.573975 
	C174.312393,336.903076 174.466354,328.703796 174.620331,320.504486 
z"/>
<path fill="#A0061E" opacity="1.000000" stroke="none" 
	d="
M174.067520,346.045593 
	C174.100800,347.740997 174.134094,349.436432 174.001099,351.664734 
	C173.672684,352.529663 173.755493,352.804077 174.083282,353.020844 
	C174.112839,354.392517 174.142410,355.764160 173.875793,357.875488 
	C173.748596,362.423798 173.917587,366.232483 174.086578,370.041168 
	C174.114609,370.770660 174.142654,371.500183 173.872101,372.930115 
	C173.382095,379.054474 173.011124,384.480072 173.061386,389.901764 
	C173.095856,393.620514 173.716080,397.333771 174.074478,401.049500 
	C174.103546,402.091125 174.132614,403.132782 173.865036,404.901978 
	C173.738617,413.100342 173.908844,420.571198 174.079086,428.042023 
	C174.109756,428.771637 174.140442,429.501282 173.875610,430.923828 
	C173.745712,435.427979 173.911331,439.239197 174.076965,443.050446 
	C174.106384,443.775665 174.135803,444.500885 173.878586,445.898560 
	C172.168411,449.293152 174.459595,453.598724 169.989517,455.022217 
	C169.989517,455.022217 169.561005,455.005951 169.216873,454.691833 
	C168.143204,453.736267 167.510651,452.897949 166.669281,452.483551 
	C157.169266,447.804291 147.675140,443.109711 138.099319,438.588898 
	C132.471161,435.931793 126.699478,433.578705 120.992340,431.088898 
	C120.992340,431.088898 120.926392,431.103516 120.844223,430.738892 
	C115.940842,427.348877 111.218124,424.150604 106.276993,421.335663 
	C97.239723,416.187164 88.073189,411.265594 78.960800,406.248962 
	C70.012970,401.322937 61.213268,396.097351 52.065926,391.574921 
	C45.956005,388.554230 39.351624,386.533661 32.968529,384.065521 
	C32.968525,384.065521 32.971581,384.029388 32.884514,383.704712 
	C27.752279,380.141022 23.017912,376.180298 17.585342,373.840942 
	C10.362805,370.730774 8.003602,368.332977 8.003302,360.289062 
	C8.002433,336.971649 8.002916,313.654266 8.003036,290.336853 
	C8.003117,274.347778 8.006614,258.358673 8.000460,242.369598 
	C7.999492,239.858063 7.619819,237.154022 11.238434,236.733047 
	C11.238434,236.733047 11.146131,236.811920 11.293600,237.025009 
	C12.021940,237.443024 12.602812,237.647934 13.183684,237.852844 
	C13.183685,237.852844 13.076037,237.908447 13.275517,238.105240 
	C14.103338,238.495834 14.731679,238.689636 15.360020,238.883453 
	C15.360019,238.883453 15.719999,238.926483 15.957782,239.332214 
	C16.880566,240.059570 17.565567,240.381165 18.250568,240.702774 
	C18.250568,240.702774 18.182785,240.779404 18.327433,241.006256 
	C19.061161,241.407059 19.650242,241.580978 20.239319,241.754913 
	C20.239319,241.754913 20.137806,241.758347 20.270187,242.057312 
	C22.406450,243.199387 24.410334,244.042480 26.414219,244.885574 
	C26.414219,244.885574 26.764435,244.924240 27.059277,245.204315 
	C27.592897,245.687180 27.860081,245.840469 28.155663,245.944275 
	C28.155663,245.944275 28.058146,245.892487 28.144489,246.204651 
	C29.897211,247.263641 31.563593,248.010483 33.229973,248.757324 
	C33.229973,248.757324 33.133133,248.768814 33.259266,249.064606 
	C36.036480,250.536270 38.687561,251.712173 41.338646,252.888062 
	C64.656120,265.289734 87.978424,277.682312 111.289261,290.096436 
	C125.366127,297.592987 139.425186,305.123047 153.857529,313.190735 
	C156.647278,314.784424 159.071747,315.825409 161.496231,316.866394 
	C161.496231,316.866394 161.785370,316.831207 161.981018,317.288696 
	C164.507233,318.440033 166.837814,319.133911 169.168381,319.827789 
	C169.168381,319.827789 169.076828,319.777527 169.162750,319.887543 
	C169.248688,319.997559 169.646881,320.149719 169.646881,320.149719 
	C169.646881,320.149719 170.005997,319.862152 170.005997,319.862152 
	C170.455322,319.890625 170.904663,319.919067 171.759506,320.460815 
	C172.443634,325.760040 172.666946,330.550018 173.019028,335.330505 
	C173.282547,338.908539 173.711975,342.474335 174.067520,346.045593 
z"/>
<path fill="#940E1A" opacity="1.000000" stroke="none" 
	d="
M11.061286,236.467438 
	C7.619819,237.154022 7.999492,239.858063 8.000460,242.369598 
	C8.006614,258.358673 8.003117,274.347778 8.003036,290.336853 
	C8.002916,313.654266 8.002433,336.971649 8.003302,360.289062 
	C8.003602,368.332977 10.362805,370.730774 17.585342,373.840942 
	C23.017912,376.180298 27.752279,380.141022 32.868057,383.712341 
	C25.083523,379.952179 17.083647,376.103638 9.477897,371.590820 
	C7.642403,370.501709 6.491642,367.309631 6.125183,364.916382 
	C5.577874,361.341980 6.005266,357.618347 6.069507,353.025757 
	C6.123443,345.785065 6.141936,339.476807 6.125488,333.168610 
	C6.059278,307.776062 5.982269,282.383484 5.998348,256.530823 
	C6.110535,248.392441 6.133623,240.714127 6.156712,233.035828 
	C7.732521,234.091156 9.308330,235.146500 11.061286,236.467438 
z"/>
<path fill="#940E1A" opacity="1.000000" stroke="none" 
	d="
M33.142288,384.362244 
	C39.351624,386.533661 45.956005,388.554230 52.065926,391.574921 
	C61.213268,396.097351 70.012970,401.322937 78.960800,406.248962 
	C88.073189,411.265594 97.239723,416.187164 106.276993,421.335663 
	C111.218124,424.150604 115.940842,427.348877 120.833038,430.707031 
	C111.506317,426.345245 102.027000,421.805908 92.731003,416.917938 
	C80.353500,410.409607 68.113190,403.640076 55.824642,396.963074 
	C48.311413,392.880798 40.818226,388.761627 33.142288,384.362244 
z"/>
<path fill="#C08B7E" opacity="1.000000" stroke="none" 
	d="
M495.937744,286.614441 
	C495.570251,285.662415 495.013763,284.236511 495.011749,282.809845 
	C494.964294,249.222733 494.972229,215.635513 494.996735,182.048340 
	C494.997559,180.903275 495.274933,179.758392 495.649994,178.252579 
	C495.920105,213.974564 495.963593,250.057404 495.937744,286.614441 
z"/>
<path fill="#940E1A" opacity="1.000000" stroke="none" 
	d="
M121.178238,431.379272 
	C126.699478,433.578705 132.471161,435.931793 138.099319,438.588898 
	C147.675140,443.109711 157.169266,447.804291 166.669281,452.483551 
	C167.510651,452.897949 168.143204,453.736267 169.003418,454.712158 
	C166.399597,454.349670 163.408951,454.143951 160.973236,452.873962 
	C147.694794,445.950500 134.552948,438.765045 121.178238,431.379272 
z"/>
<path fill="#FFDFFF" opacity="1.000000" stroke="none" 
	d="
M5.909249,256.990936 
	C5.982269,282.383484 6.059278,307.776062 6.125488,333.168610 
	C6.141936,339.476807 6.123443,345.785065 6.108227,352.563141 
	C5.730297,351.580078 5.049310,350.127808 5.046554,348.674194 
	C4.989207,318.427887 5.008766,288.181396 5.276816,257.471436 
	C5.540486,257.007874 5.909249,256.990936 5.909249,256.990936 
z"/>
<path fill="#FFFFFF" opacity="1.000000" stroke="none" 
	d="
M496.366302,176.921448 
	C495.936584,176.934158 495.911316,176.752151 495.909393,175.841278 
	C495.862946,167.424423 495.793152,159.736435 495.723358,152.048462 
	C495.775421,151.857407 495.827484,151.666367 495.925110,151.181610 
	C496.313782,152.703583 496.937134,154.517258 496.950104,156.335297 
	C496.998566,163.131668 496.847168,169.929474 496.366302,176.921448 
z"/>
<path fill="#FFE4E5" opacity="1.000000" stroke="none" 
	d="
M5.998348,256.530823 
	C5.909249,256.990936 5.540486,257.007874 5.355914,257.009369 
	C5.187856,248.423248 5.204369,239.835648 5.637204,231.070282 
	C6.032514,231.374008 6.011502,231.855499 6.073600,232.686401 
	C6.133623,240.714127 6.110535,248.392441 5.998348,256.530823 
z"/>
<path fill="#940E1A" opacity="1.000000" stroke="none" 
	d="
M170.137726,455.282898 
	C174.459595,453.598724 172.168411,449.293152 173.833847,446.259430 
	C173.943054,449.248810 173.810364,452.549835 173.528305,456.263611 
	C172.347931,456.298798 171.316925,455.921173 170.137726,455.282898 
z"/>
<path fill="#A0071D" opacity="1.000000" stroke="none" 
	d="
M288.346191,207.159958 
	C280.488678,212.776917 271.287506,214.279297 262.066193,215.339890 
	C246.303162,217.152847 230.716675,216.032516 216.312607,208.946106 
	C211.009445,206.337097 206.244781,202.019226 202.296875,197.543686 
	C200.478531,195.482300 201.216675,191.165863 201.326080,187.456299 
	C213.037018,180.242630 225.392654,178.822357 237.980392,180.151566 
	C258.310089,182.298233 276.649475,188.672150 288.346191,207.159958 
z"/>
<path fill="#A0071D" opacity="1.000000" stroke="none" 
	d="
M193.268845,257.147797 
	C177.648071,265.437897 160.886414,266.345825 143.801041,264.485352 
	C133.122986,263.322571 122.822578,260.534668 114.054550,254.000732 
	C108.790619,250.078064 104.154869,245.448441 106.344330,237.368576 
	C111.678780,234.890961 116.385788,232.169296 121.454277,230.948929 
	C140.457870,226.373291 158.488678,230.109680 175.489426,238.999405 
	C183.219955,243.041702 189.850525,248.645126 193.268845,257.147797 
z"/>
<path fill="#A0071D" opacity="1.000000" stroke="none" 
	d="
M309.011322,159.181351 
	C305.481567,156.435654 301.648407,153.993958 298.507355,150.858826 
	C295.365173,147.722534 293.631042,143.693604 295.551758,138.556854 
	C298.055084,137.024002 300.036926,135.783203 302.155548,134.854446 
	C323.559174,125.471695 358.862427,131.795868 375.465363,148.329773 
	C378.352814,151.205261 379.885651,155.440994 381.726990,159.157623 
	C379.865814,160.096512 378.321838,160.926254 376.777893,161.755997 
	C376.777893,161.755997 376.882294,161.794891 376.492035,161.760406 
	C355.742096,168.306534 335.365387,168.349655 314.971771,161.884979 
	C314.971771,161.884979 314.784637,161.737061 314.431458,161.547394 
	C312.389282,160.632263 310.700287,159.906815 309.011322,159.181351 
z"/>
<path fill="#C26851" opacity="1.000000" stroke="none" 
	d="
M382.044189,159.048462 
	C379.885651,155.440994 378.352814,151.205261 375.465363,148.329773 
	C358.862427,131.795868 323.559174,125.471695 302.155548,134.854446 
	C300.036926,135.783203 298.055084,137.024002 295.682617,138.230286 
	C295.937897,131.960205 300.429230,128.459656 305.261078,125.455582 
	C313.890045,120.090820 323.469727,117.309799 333.521149,116.403908 
	C350.279419,114.893578 366.803070,115.643021 382.270416,123.270058 
	C385.063965,124.647560 387.522736,126.730461 390.066437,128.583282 
	C397.989655,134.354538 398.828735,147.181305 390.086731,153.473526 
	C388.200989,154.830795 386.401031,156.307175 384.028015,158.022247 
	C383.011017,158.560028 382.527618,158.804245 382.044189,159.048462 
z"/>
<path fill="#C26851" opacity="1.000000" stroke="none" 
	d="
M193.600510,257.071625 
	C189.850525,248.645126 183.219955,243.041702 175.489426,238.999405 
	C158.488678,230.109680 140.457870,226.373291 121.454277,230.948929 
	C116.385788,232.169296 111.678780,234.890961 106.477127,237.033173 
	C106.590157,230.709229 111.112068,227.104889 115.929779,224.213867 
	C130.569229,215.428970 146.741150,213.281509 163.451233,214.441483 
	C174.461792,215.205795 185.199936,217.456207 194.879837,223.057312 
	C201.015137,226.607376 206.596603,230.871033 207.071014,238.884918 
	C207.639755,248.492249 201.180023,253.038696 193.600510,257.071625 
z"/>
<path fill="#C26851" opacity="1.000000" stroke="none" 
	d="
M288.686584,207.130127 
	C276.649475,188.672150 258.310089,182.298233 237.980392,180.151566 
	C225.392654,178.822357 213.037018,180.242630 201.507446,187.110901 
	C201.654007,179.393387 207.982361,176.427536 213.459793,173.398361 
	C228.413727,165.128464 244.778839,163.859558 261.429626,165.434662 
	C271.759399,166.411819 281.674072,169.027695 290.774506,174.350174 
	C298.159027,178.669098 303.035614,186.181229 301.838684,192.856140 
	C300.536072,200.120148 295.003693,203.881012 288.686584,207.130127 
z"/>
<path fill="#E59184" opacity="1.000000" stroke="none" 
	d="
M315.161285,162.199341 
	C335.365387,168.349655 355.742096,168.306534 376.504272,161.706055 
	C375.386047,162.581894 373.968658,163.805176 372.328583,164.322601 
	C356.009430,169.471420 339.522827,169.328766 323.000793,165.441559 
	C320.366943,164.821899 317.896698,163.507126 315.161285,162.199341 
z"/>
<path fill="#940E1A" opacity="1.000000" stroke="none" 
	d="
M174.112976,345.573975 
	C173.711975,342.474335 173.282547,338.908539 173.019028,335.330505 
	C172.666946,330.550018 172.443634,325.760040 172.078812,320.577332 
	C172.655365,320.223267 173.318146,320.265991 174.300629,320.406586 
	C174.466354,328.703796 174.312393,336.903076 174.112976,345.573975 
z"/>
<path fill="#C08B7E" opacity="1.000000" stroke="none" 
	d="
M495.506165,152.223999 
	C495.793152,159.736435 495.862946,167.424423 495.835083,175.575836 
	C495.480682,171.135986 495.246124,166.231384 494.956085,161.330078 
	C494.840179,159.370880 494.601929,157.418915 494.192200,155.081757 
	C494.406403,153.933075 494.847717,153.166306 495.506165,152.223999 
z"/>
<path fill="#940E1A" opacity="1.000000" stroke="none" 
	d="
M41.077938,252.648010 
	C38.687561,251.712173 36.036480,250.536270 33.261749,249.015900 
	C35.697815,249.916916 38.257523,251.162430 41.077938,252.648010 
z"/>
<path fill="#E59184" opacity="1.000000" stroke="none" 
	d="
M381.726990,159.157623 
	C382.527618,158.804245 383.011017,158.560028 383.742889,158.205902 
	C383.222443,161.653748 380.667114,162.202072 377.189331,161.822723 
	C378.321838,160.926254 379.865814,160.096512 381.726990,159.157623 
z"/>
<path fill="#940E1A" opacity="1.000000" stroke="none" 
	d="
M161.246338,316.607178 
	C159.071747,315.825409 156.647278,314.784424 154.125244,313.411224 
	C156.350601,314.168671 158.673538,315.258331 161.246338,316.607178 
z"/>
<path fill="#940E1A" opacity="1.000000" stroke="none" 
	d="
M168.924072,319.579254 
	C166.837814,319.133911 164.507233,318.440033 162.092712,317.382141 
	C164.232407,317.789001 166.456085,318.559845 168.924072,319.579254 
z"/>
<path fill="#940E1A" opacity="1.000000" stroke="none" 
	d="
M26.165001,244.627365 
	C24.410334,244.042480 22.406450,243.199387 20.276844,242.006973 
	C22.072674,242.561493 23.994228,243.465332 26.165001,244.627365 
z"/>
<path fill="#940E1A" opacity="1.000000" stroke="none" 
	d="
M33.036301,248.488464 
	C31.563593,248.010483 29.897211,247.263641 28.172731,246.157196 
	C29.690630,246.604950 31.266628,247.412277 33.036301,248.488464 
z"/>
<path fill="#E59184" opacity="1.000000" stroke="none" 
	d="
M309.128601,159.514069 
	C310.700287,159.906815 312.389282,160.632263 314.331360,161.612259 
	C312.804962,161.193466 311.025391,160.520126 309.128601,159.514069 
z"/>
<path fill="#940E1A" opacity="1.000000" stroke="none" 
	d="
M18.127234,240.445892 
	C17.565567,240.381165 16.880566,240.059570 16.099449,239.445312 
	C16.670191,239.498108 17.337046,239.843567 18.127234,240.445892 
z"/>
<path fill="#940E1A" opacity="1.000000" stroke="none" 
	d="
M13.006436,237.592285 
	C12.602812,237.647934 12.021940,237.443024 11.259342,236.974899 
	C11.661474,236.918381 12.245332,237.125061 13.006436,237.592285 
z"/>
<path fill="#940E1A" opacity="1.000000" stroke="none" 
	d="
M15.129398,238.645523 
	C14.731679,238.689636 14.103338,238.495834 13.250910,238.049881 
	C13.650807,238.001022 14.274792,238.204315 15.129398,238.645523 
z"/>
<path fill="#940E1A" opacity="1.000000" stroke="none" 
	d="
M20.064022,241.490875 
	C19.650242,241.580978 19.061161,241.407059 18.294136,240.967438 
	C18.707033,240.876785 19.297878,241.051819 20.064022,241.490875 
z"/>
<path fill="#940E1A" opacity="1.000000" stroke="none" 
	d="
M169.797577,319.770660 
	C170.005997,319.862152 169.646881,320.149719 169.646881,320.149719 
	C169.646881,320.149719 169.248688,319.997559 169.191376,319.843872 
	C169.134064,319.690186 169.589172,319.679169 169.797577,319.770660 
z"/>
<path fill="#940E1A" opacity="1.000000" stroke="none" 
	d="
M28.048304,245.720596 
	C27.860081,245.840469 27.592897,245.687180 27.195484,245.316040 
	C27.386675,245.138565 27.688040,245.254959 28.048304,245.720596 
z"/>
<path fill="#940E1A" opacity="1.000000" stroke="none" 
	d="
M174.119125,400.577332 
	C173.716080,397.333771 173.095856,393.620514 173.061386,389.901764 
	C173.011124,384.480072 173.382095,379.054474 173.826187,373.292938 
	C174.107178,382.005280 174.135468,391.055237 174.119125,400.577332 
z"/>
<path fill="#940E1A" opacity="1.000000" stroke="none" 
	d="
M174.122131,427.570557 
	C173.908844,420.571198 173.738617,413.100342 173.819397,405.290649 
	C174.101990,412.334229 174.133575,419.716644 174.122131,427.570557 
z"/>
<path fill="#940E1A" opacity="1.000000" stroke="none" 
	d="
M174.208160,369.665588 
	C173.917587,366.232483 173.748596,362.423798 173.829361,358.284943 
	C174.162659,361.733185 174.246216,365.511627 174.208160,369.665588 
z"/>
<path fill="#940E1A" opacity="1.000000" stroke="none" 
	d="
M174.120453,442.585968 
	C173.911331,439.239197 173.745712,435.427979 173.829865,431.286804 
	C174.107742,434.678406 174.135849,438.399963 174.120453,442.585968 
z"/>
<path fill="#940E1A" opacity="1.000000" stroke="none" 
	d="
M174.107025,352.759583 
	C173.755493,352.804077 173.672684,352.529663 173.957718,352.086823 
	C174.097305,352.150055 174.114029,352.324158 174.107025,352.759583 
z"/>
</svg>
